<svg xmlns="http://www.w3.org/2000/svg" width="54.492" height="54.492" viewBox="0 0 64 64" id="data-management">
<path fill="#316ec2" d="M47.54,35.42c0-0.39-0.31-0.7-0.7-0.7H35.71l-3.01-2.38v-3.2h4.37c0.3,0,0.54-0.24,0.54-0.54v-6.8c0-0.3-0.24-0.54-0.54-0.54H26.93c-0.3,0-0.54,0.24-0.54,0.54v6.8c0,0.3,0.24,0.54,0.54,0.54h4.36v3.2l-3.01,2.38H17.16c-0.39,0-0.7,0.31-0.7,0.7v2.65h-3.42v4.78h8.24v-4.78h-3.42v-1.95h10.43l3.01,2.38v5.52c0,0,0,0,0,0h-1.96v1.97h-9.72c-0.39,0-0.7,0.31-0.7,0.7v1.93c0,0.03,0.01,0.06,0.02,0.1c-1.15,0.3-2,1.34-2,2.58c0,1.48,1.2,2.68,2.68,2.68s2.68-1.2,2.68-2.68c0-1.24-0.85-2.28-2-2.58c0-0.03,0.02-0.06,0.02-0.1v-1.23h9.02v1.97h5.34v-1.97c0,0,0,0,0,0h9.02v1.23c0,0.03,0.01,0.06,0.02,0.1c-1.15,0.3-2,1.34-2,2.58c0,1.48,1.2,2.68,2.68,2.68c1.48,0,2.68-1.2,2.68-2.68c0-1.24-0.85-2.28-2-2.58c0-0.03,0.02-0.06,0.02-0.1v-1.93c0-0.39-0.31-0.7-0.7-0.7h-9.72c0,0,0,0,0,0v-1.97H32.7c0,0,0,0,0,0V38.5l3.01-2.38h10.43v1.95h-3.42v4.78h8.24v-4.78h-3.42V35.42z"></path>
<path fill="#316ec2" d="M.31 61.55C.31 62.91 1.4 64 2.76 64h58.49c1.35 0 2.45-1.09 2.45-2.45V12.77H.31V61.55zM3.78 16.44h56.46v43.91H3.78V16.44zM61.24 0H2.76C1.4 0 .31 1.1.31 2.45v8.66h63.38V2.45C63.69 1.1 62.59 0 61.24 0zM6.27 6.9c-.75 0-1.36-.6-1.36-1.35 0-.75.6-1.36 1.36-1.36.74 0 1.35.6 1.35 1.36C7.62 6.3 7.02 6.9 6.27 6.9zM13.38 6.9c-.74 0-1.35-.6-1.35-1.35 0-.75.6-1.36 1.35-1.36.74 0 1.35.6 1.35 1.36C14.73 6.3 14.13 6.9 13.38 6.9zM20.5 6.9c-.74 0-1.35-.6-1.35-1.35 0-.75.6-1.36 1.35-1.36.74 0 1.35.6 1.35 1.36C21.84 6.3 21.24 6.9 20.5 6.9zM57.87 6.77H28.72c-.67 0-1.22-.54-1.22-1.22 0-.68.54-1.23 1.22-1.23h29.15c.67 0 1.22.54 1.22 1.23C59.08 6.23 58.54 6.77 57.87 6.77z"></path>
</svg>