<svg xmlns="http://www.w3.org/2000/svg" width="54.492" height="54.492" viewBox="0 0 64 64" id="manager">
<circle cx="11" cy="39" r="9" fill="#316ec2"></circle>
<circle cx="11" cy="38" r="3" fill="#ffdbac"></circle>
<path fill="#ffffff" d="M14.54 42.17C13.63 41.45 12.38 41 11 41c-2.76 0-5 1.79-5 4v.24C7.37 46.339 9.107 47 11 47s3.63-.661 5-1.76V45c0-1.1-.56-2.1-1.46-2.83z"></path>
<circle cx="53" cy="39" r="9" fill="#316ec2"></circle>
<circle cx="11" cy="11" r="9" fill="#316ec2"></circle>
<path fill="#316ec2" d="M38.969 26.706 41 26.68l-.046-3.591-2.031.026a7.133 7.133 0 0 0-.788-1.837l1.417-1.454-2.572-2.507-1.417 1.454a7.154 7.154 0 0 0-1.857-.741L33.68 16l-3.591.046.026 2.031a7.133 7.133 0 0 0-1.837.788l-1.454-1.417-2.507 2.572 1.454 1.417a7.154 7.154 0 0 0-.741 1.857L23 23.32l.046 3.591 2.031-.026c.178.655.444 1.271.788 1.837l-1.417 1.454 2.572 2.507 1.417-1.454c.575.329 1.198.58 1.857.741L30.32 34l3.591-.046-.026-2.031a7.133 7.133 0 0 0 1.837-.788l1.454 1.417 2.507-2.572-1.454-1.417a7.124 7.124 0 0 0 .74-1.857zm-6.952 1.254a3.007 3.007 0 1 1-.077-6.013 3.007 3.007 0 0 1 .077 6.013z"></path>
<path fill="#ffffff" d="M11 13a1 1 0 0 1-1-1V6h2v4.78l3.804-.761.393 1.961-5 1A.948.948 0 0 1 11 13z"></path>
<path fill="#ffffff" d="M48 40h2v2h-2zM52 38h2v4h-2zM56 36h2v6h-2z"></path>
<path fill="#316ec2" d="M31 10h2v2h-2zM35 10h2v2h-2zM23 10h2v2h-2zM27 10h2v2h-2zM39 10h2v2h-2zM10 22h2v2h-2zM10 26h2v2h-2zM52 22h2v2h-2zM52 26h2v2h-2zM10 50h2v2h-2zM10 54h2v2h-2zM14 54h2v2h-2zM18 54h2v2h-2zM52 50h2v2h-2zM52 54h2v2h-2zM48 54h2v2h-2zM44 54h2v2h-2z"></path>
<path fill="#316ec2" d="M35 48h-6a4 4 0 0 0-4 4v10h14V52a4 4 0 0 0-4-4z"></path><path fill="#316ec2" d="M31.366 62H39v-6.549A15.04 15.04 0 0 1 31.366 62z"></path>
<path fill="#ffffff" d="m32 48-2 7 2 3 2-3z"></path>
<path fill="#ffdbac" d="M37 43c0 .21-.01.42-.05.62C36.66 46.09 34.55 48 32 48s-4.66-1.91-4.95-4.38c-.04-.2-.05-.41-.05-.62 0-2.76 2.24-5 5-5s5 2.24 5 5z"></path>
<path fill="#526273" d="M32 38c-2.76 0-5 2.24-5 5 0 .21.01.42.05.62C28.12 42.04 29.94 41 32 41s3.88 1.04 4.95 2.62c.04-.2.05-.41.05-.62 0-2.76-2.24-5-5-5z"></path>
<circle cx="53" cy="11" r="9" fill="#316ec2"></circle>
<path fill="#ffffff" d="M53 10c-.551 0-1-.449-1-1s.449-1 1-1 1 .449 1 1h2a2.996 2.996 0 0 0-2-2.816V5h-2v1.184A2.996 2.996 0 0 0 50 9c0 1.654 1.346 3 3 3 .551 0 1 .449 1 1s-.449 1-1 1-1-.449-1-1h-2c0 1.302.839 2.402 2 2.816V17h2v-1.184A2.996 2.996 0 0 0 56 13c0-1.654-1.346-3-3-3z"></path>
</svg>